<svg width="46" height="46" viewBox="0 0 46 46" fill="none" xmlns="http://www.w3.org/2000/svg">
<g clip-path="url(#clip0_794_1618)">
<path d="M23 46C35.7025 46 46 35.7025 46 23C46 10.2975 35.7025 0 23 0C10.2975 0 0 10.2975 0 23C0 35.7025 10.2975 46 23 46Z" fill="white"/>
<path d="M23 40.25C32.5269 40.25 40.25 32.5269 40.25 23C40.25 13.4731 32.5269 5.75 23 5.75C13.4731 5.75 5.75 13.4731 5.75 23C5.75 32.5269 13.4731 40.25 23 40.25Z" fill="#EE5930"/>
<path d="M16.0996 30.475L29.8996 16.675M29.8996 16.675V29.923M29.8996 16.675H16.6516" stroke="white" stroke-width="1.5" stroke-linecap="round" stroke-linejoin="round"/>
</g>
<defs>
<clipPath id="clip0_794_1618">
<rect width="46" height="46" fill="white"/>
</clipPath>
</defs>
</svg>
