<svg width="84" height="84" viewBox="0 0 84 84" fill="none" xmlns="http://www.w3.org/2000/svg">
<circle cx="42" cy="42" r="41" fill="#4667FF" stroke="#EE5930" stroke-width="2"/>
<path d="M14.8711 38.063V31.483H19.4281C20.1655 31.483 20.7511 31.6463 21.1851 31.973C21.6238 32.295 21.8431 32.7547 21.8431 33.352C21.8431 33.688 21.7825 33.9657 21.6611 34.185C21.5398 34.3997 21.3648 34.5723 21.1361 34.703C21.6075 35.053 21.8431 35.5383 21.8431 36.159C21.8431 36.5697 21.7428 36.9173 21.5421 37.202C21.3461 37.482 21.0661 37.6967 20.7021 37.846C20.3428 37.9907 19.9181 38.063 19.4281 38.063H14.8711ZM15.9001 37.034H19.3301C20.3195 37.034 20.8141 36.7843 20.8141 36.285C20.8141 35.893 20.7021 35.6107 20.4781 35.438C20.2588 35.2653 19.8948 35.179 19.3861 35.179H15.9001V37.034ZM15.9001 34.15H19.3861C19.9461 34.15 20.3265 34.0917 20.5271 33.975C20.7278 33.8583 20.8281 33.618 20.8281 33.254C20.8281 32.7593 20.3288 32.512 19.3301 32.512H15.9001V34.15ZM24.7121 38.063V32.008C24.7121 31.5927 24.8825 31.385 25.2231 31.385C25.5685 31.385 25.7411 31.5927 25.7411 32.008V34.15H28.7371C29.2365 34.15 29.6658 34.2247 30.0251 34.374C30.3845 34.5187 30.6621 34.7357 30.8581 35.025C31.0541 35.3143 31.1521 35.6737 31.1521 36.103C31.1521 36.5323 31.0541 36.8917 30.8581 37.181C30.6668 37.4703 30.3891 37.6873 30.0251 37.832C29.6658 37.9767 29.2365 38.0537 28.7371 38.063H24.7121ZM25.7411 37.034H28.6181C29.0428 37.034 29.3998 36.9733 29.6891 36.852C29.9785 36.726 30.1231 36.4927 30.1231 36.152C30.1231 35.872 30.0601 35.662 29.9341 35.522C29.8128 35.382 29.6378 35.291 29.4091 35.249C29.1851 35.2023 28.9215 35.179 28.6181 35.179H25.7411V37.034ZM32.1671 38.315C31.8311 38.315 31.6631 38.1167 31.6631 37.72V31.84C31.6631 31.6487 31.7075 31.4993 31.7961 31.392C31.8895 31.28 32.0155 31.224 32.1741 31.224C32.3375 31.224 32.4635 31.28 32.5521 31.392C32.6455 31.4993 32.6921 31.6487 32.6921 31.84V37.72C32.6921 38.1167 32.5171 38.315 32.1671 38.315ZM40.9583 32.512H37.3253C37.0779 32.512 36.9123 32.5563 36.8283 32.645C36.7443 32.7337 36.7023 32.9087 36.7023 33.17V37.552C36.7023 37.958 36.5319 38.161 36.1913 38.161C35.8459 38.161 35.6733 37.958 35.6733 37.552V33.345C35.6733 32.6543 35.7876 32.1713 36.0163 31.896C36.2449 31.6207 36.6486 31.483 37.2273 31.483H40.9583C41.3829 31.483 41.5953 31.6533 41.5953 31.994C41.5953 32.3393 41.3829 32.512 40.9583 32.512ZM47.0746 38.063C46.2393 38.063 45.5696 37.986 45.0656 37.832C44.5616 37.678 44.1953 37.4167 43.9666 37.048C43.7426 36.6747 43.6306 36.1637 43.6306 35.515V34.024C43.6306 33.38 43.7426 32.8737 43.9666 32.505C44.1953 32.1317 44.5616 31.868 45.0656 31.714C45.5696 31.56 46.2393 31.483 47.0746 31.483H47.4806C48.316 31.483 48.9856 31.5623 49.4896 31.721C49.9936 31.875 50.3576 32.1387 50.5816 32.512C50.8056 32.8807 50.9176 33.3847 50.9176 34.024V35.515C50.9176 36.159 50.8056 36.6677 50.5816 37.041C50.3576 37.4097 49.9936 37.6733 49.4896 37.832C48.9856 37.986 48.316 38.063 47.4806 38.063H47.0746ZM47.0746 37.034H47.4806C48.1526 37.034 48.6613 36.9967 49.0066 36.922C49.352 36.8473 49.5853 36.7003 49.7066 36.481C49.828 36.257 49.8886 35.9257 49.8886 35.487V34.059C49.8886 33.611 49.8256 33.2773 49.6996 33.058C49.5736 32.834 49.338 32.687 48.9926 32.617C48.6473 32.547 48.1433 32.512 47.4806 32.512H47.0746C46.4026 32.512 45.8916 32.547 45.5416 32.617C45.1963 32.687 44.963 32.834 44.8416 33.058C44.7203 33.2773 44.6596 33.611 44.6596 34.059V35.487C44.6596 35.9257 44.7203 36.257 44.8416 36.481C44.963 36.7003 45.1963 36.8473 45.5416 36.922C45.8916 36.9967 46.4026 37.034 47.0746 37.034ZM53.4137 39.351C53.0683 39.351 52.8957 39.1363 52.8957 38.707V38.035C52.8957 37.3583 53.2083 37.0247 53.8337 37.034H54.2187L53.6587 37.279C54.676 35.697 55.18 33.765 55.1707 31.483H59.3357V37.034H59.7907C60.3647 37.034 60.6517 37.3677 60.6517 38.035V38.707C60.6517 39.1363 60.4813 39.351 60.1407 39.351C59.7953 39.351 59.6227 39.1363 59.6227 38.707V38.063H53.9247V38.707C53.9247 39.1363 53.7543 39.351 53.4137 39.351ZM54.9817 37.034H58.2787V32.512H56.2697C56.2277 34.1453 55.7983 35.6527 54.9817 37.034ZM68.6725 38.161C68.5511 38.161 68.4578 38.1237 68.3925 38.049C68.3271 37.9743 68.2805 37.8273 68.2525 37.608C68.2291 37.3887 68.2175 37.0643 68.2175 36.635L68.3575 36.964C68.0728 37.3653 67.7158 37.65 67.2865 37.818C66.8571 37.9813 66.3485 38.063 65.7605 38.063H64.4585C63.9731 38.063 63.5765 37.8997 63.2685 37.573C62.9651 37.2417 62.8135 36.74 62.8135 36.068C62.8135 35.6107 62.8881 35.235 63.0375 34.941C63.1868 34.6423 63.4085 34.4067 63.7025 34.234C64.0011 34.0613 64.3628 33.94 64.7875 33.87C65.2168 33.7953 65.7068 33.758 66.2575 33.758H68.6305L68.1685 34.185V33.114C68.1685 32.8807 68.1265 32.722 68.0425 32.638C67.9631 32.554 67.7975 32.512 67.5455 32.512H65.5715C65.1235 32.512 64.7758 32.5307 64.5285 32.568C64.2811 32.6007 64.1061 32.6613 64.0035 32.75C63.9008 32.834 63.8471 32.9483 63.8425 33.093C63.8285 33.3077 63.7888 33.4663 63.7235 33.569C63.6628 33.6717 63.5298 33.723 63.3245 33.723C62.9838 33.723 62.8135 33.4967 62.8135 33.044C62.8135 32.5073 63.0351 32.113 63.4785 31.861C63.9265 31.609 64.5915 31.483 65.4735 31.483H67.6435C68.2221 31.483 68.6258 31.6207 68.8545 31.896C69.0831 32.1713 69.1975 32.6543 69.1975 33.345V37.552C69.1975 37.958 69.0225 38.161 68.6725 38.161ZM64.4935 37.076H65.7605C66.6331 37.076 67.2538 36.8753 67.6225 36.474C67.9911 36.0727 68.1731 35.4567 68.1685 34.626L68.2945 34.745H66.2575C65.6741 34.745 65.2051 34.7777 64.8505 34.843C64.4958 34.9037 64.2391 35.025 64.0805 35.207C63.9218 35.389 63.8425 35.6597 63.8425 36.019C63.8425 36.3643 63.9031 36.628 64.0245 36.81C64.1458 36.9873 64.3021 37.076 64.4935 37.076ZM31.8155 58C30.6622 58 29.7755 57.7567 29.1555 57.27C28.5355 56.7767 28.1689 56.0167 28.0555 54.99C28.0355 54.75 28.0889 54.5633 28.2155 54.43C28.3422 54.29 28.5289 54.22 28.7755 54.22C29.2289 54.22 29.4789 54.46 29.5255 54.94C29.6122 55.5333 29.8255 55.9467 30.1655 56.18C30.5122 56.4133 31.0622 56.53 31.8155 56.53H33.8955C34.7889 56.53 35.3989 56.3633 35.7255 56.03C36.0589 55.69 36.2255 55.08 36.2255 54.2V52.82C36.2255 51.9333 36.0589 51.3267 35.7255 51C35.3922 50.6667 34.7822 50.5 33.8955 50.5H32.4155C31.3422 50.5 30.5789 50.65 30.1255 50.95C29.9589 51.0633 29.8022 51.1467 29.6555 51.2C29.5089 51.2533 29.3389 51.25 29.1455 51.19L28.9755 51.14C28.5689 51.0267 28.3655 50.7533 28.3655 50.32V45.4C28.3655 44.9067 28.6089 44.66 29.0955 44.66H36.9255C37.4122 44.66 37.6555 44.9067 37.6555 45.4C37.6555 45.8867 37.4122 46.13 36.9255 46.13H29.8355V49.45C30.5089 49.17 31.3689 49.03 32.4155 49.03H33.8955C35.1889 49.03 36.1455 49.34 36.7655 49.96C37.3855 50.5733 37.6955 51.5267 37.6955 52.82V54.2C37.6955 55.4933 37.3855 56.45 36.7655 57.07C36.1455 57.69 35.1889 58 33.8955 58H31.8155ZM44.7866 51.72C43.8533 51.72 43.1566 51.49 42.6966 51.03C42.2433 50.57 42.0166 49.87 42.0166 48.93V47.43C42.0166 46.4967 42.2433 45.8033 42.6966 45.35C43.1566 44.89 43.8533 44.66 44.7866 44.66H45.1066C46.04 44.66 46.7333 44.89 47.1866 45.35C47.6466 45.81 47.8766 46.5033 47.8766 47.43V48.91C47.8766 49.8567 47.6466 50.5633 47.1866 51.03C46.7333 51.49 46.04 51.72 45.1066 51.72H44.7866ZM43.3966 48.93C43.3966 49.4833 43.49 49.8533 43.6766 50.04C43.87 50.2267 44.24 50.32 44.7866 50.32H45.1066C45.6533 50.32 46.02 50.2267 46.2066 50.04C46.4 49.8533 46.4966 49.4767 46.4966 48.91V47.43C46.4966 46.89 46.4 46.5267 46.2066 46.34C46.02 46.1533 45.6533 46.06 45.1066 46.06H44.7866C44.24 46.06 43.87 46.1533 43.6766 46.34C43.49 46.52 43.3966 46.8833 43.3966 47.43V48.93ZM53.2566 58C52.3233 58 51.6266 57.7733 51.1666 57.32C50.7133 56.86 50.4866 56.1633 50.4866 55.23V53.73C50.4866 52.7833 50.7133 52.0867 51.1666 51.64C51.6266 51.1867 52.3233 50.96 53.2566 50.96H53.5766C54.51 50.96 55.2033 51.19 55.6566 51.65C56.1166 52.1033 56.3466 52.7967 56.3466 53.73V55.21C56.3466 56.15 56.1166 56.85 55.6566 57.31C55.2033 57.77 54.51 58 53.5766 58H53.2566ZM51.8666 55.23C51.8666 55.7767 51.96 56.1467 52.1466 56.34C52.34 56.5267 52.71 56.62 53.2566 56.62H53.5766C54.1233 56.62 54.49 56.5233 54.6766 56.33C54.87 56.1367 54.9666 55.7633 54.9666 55.21V53.73C54.9666 53.1833 54.87 52.8167 54.6766 52.63C54.49 52.4367 54.1233 52.34 53.5766 52.34H53.2566C52.71 52.34 52.34 52.4333 52.1466 52.62C51.96 52.8 51.8666 53.17 51.8666 53.73V55.23ZM44.5266 58.29C44.3266 58.29 44.1533 58.2167 44.0066 58.07C43.8666 57.93 43.7966 57.76 43.7966 57.56C43.7966 57.4733 43.81 57.39 43.8366 57.31C43.8633 57.23 43.8966 57.16 43.9366 57.1L53.1566 44.9C53.31 44.7 53.5066 44.6 53.7466 44.6C53.9533 44.6 54.1266 44.6733 54.2666 44.82C54.4133 44.96 54.4866 45.1333 54.4866 45.34C54.4866 45.4133 54.4733 45.4933 54.4466 45.58C54.42 45.66 54.3866 45.73 54.3466 45.79L45.1266 57.99C44.9666 58.19 44.7666 58.29 44.5266 58.29Z" fill="white"/>
</svg>
