<svg width="110" height="110" viewBox="0 0 110 110" fill="none" xmlns="http://www.w3.org/2000/svg">
<circle cx="55" cy="55" r="55" fill="#EE5930"/>
<circle cx="55" cy="55" r="40" fill="white"/>
<path d="M27.8711 51.063V44.483H32.4281C33.1655 44.483 33.7511 44.6463 34.1851 44.973C34.6238 45.295 34.8431 45.7547 34.8431 46.352C34.8431 46.688 34.7825 46.9657 34.6611 47.185C34.5398 47.3997 34.3648 47.5723 34.1361 47.703C34.6075 48.053 34.8431 48.5383 34.8431 49.159C34.8431 49.5697 34.7428 49.9173 34.5421 50.202C34.3461 50.482 34.0661 50.6967 33.7021 50.846C33.3428 50.9907 32.9181 51.063 32.4281 51.063H27.8711ZM28.9001 50.034H32.3301C33.3195 50.034 33.8141 49.7843 33.8141 49.285C33.8141 48.893 33.7021 48.6107 33.4781 48.438C33.2588 48.2653 32.8948 48.179 32.3861 48.179H28.9001V50.034ZM28.9001 47.15H32.3861C32.9461 47.15 33.3265 47.0917 33.5271 46.975C33.7278 46.8583 33.8281 46.618 33.8281 46.254C33.8281 45.7593 33.3288 45.512 32.3301 45.512H28.9001V47.15ZM37.7121 51.063V45.008C37.7121 44.5927 37.8825 44.385 38.2231 44.385C38.5685 44.385 38.7411 44.5927 38.7411 45.008V47.15H41.7371C42.2365 47.15 42.6658 47.2247 43.0251 47.374C43.3845 47.5187 43.6621 47.7357 43.8581 48.025C44.0541 48.3143 44.1521 48.6737 44.1521 49.103C44.1521 49.5323 44.0541 49.8917 43.8581 50.181C43.6668 50.4703 43.3891 50.6873 43.0251 50.832C42.6658 50.9767 42.2365 51.0537 41.7371 51.063H37.7121ZM38.7411 50.034H41.6181C42.0428 50.034 42.3998 49.9733 42.6891 49.852C42.9785 49.726 43.1231 49.4927 43.1231 49.152C43.1231 48.872 43.0601 48.662 42.9341 48.522C42.8128 48.382 42.6378 48.291 42.4091 48.249C42.1851 48.2023 41.9215 48.179 41.6181 48.179H38.7411V50.034ZM45.1671 51.315C44.8311 51.315 44.6631 51.1167 44.6631 50.72V44.84C44.6631 44.6487 44.7075 44.4993 44.7961 44.392C44.8895 44.28 45.0155 44.224 45.1741 44.224C45.3375 44.224 45.4635 44.28 45.5521 44.392C45.6455 44.4993 45.6921 44.6487 45.6921 44.84V50.72C45.6921 51.1167 45.5171 51.315 45.1671 51.315ZM53.9583 45.512H50.3253C50.0779 45.512 49.9123 45.5563 49.8283 45.645C49.7443 45.7337 49.7023 45.9087 49.7023 46.17V50.552C49.7023 50.958 49.5319 51.161 49.1913 51.161C48.8459 51.161 48.6733 50.958 48.6733 50.552V46.345C48.6733 45.6543 48.7876 45.1713 49.0163 44.896C49.2449 44.6207 49.6486 44.483 50.2273 44.483H53.9583C54.3829 44.483 54.5953 44.6533 54.5953 44.994C54.5953 45.3393 54.3829 45.512 53.9583 45.512ZM60.0746 51.063C59.2393 51.063 58.5696 50.986 58.0656 50.832C57.5616 50.678 57.1953 50.4167 56.9666 50.048C56.7426 49.6747 56.6306 49.1637 56.6306 48.515V47.024C56.6306 46.38 56.7426 45.8737 56.9666 45.505C57.1953 45.1317 57.5616 44.868 58.0656 44.714C58.5696 44.56 59.2393 44.483 60.0746 44.483H60.4806C61.316 44.483 61.9856 44.5623 62.4896 44.721C62.9936 44.875 63.3576 45.1387 63.5816 45.512C63.8056 45.8807 63.9176 46.3847 63.9176 47.024V48.515C63.9176 49.159 63.8056 49.6677 63.5816 50.041C63.3576 50.4097 62.9936 50.6733 62.4896 50.832C61.9856 50.986 61.316 51.063 60.4806 51.063H60.0746ZM60.0746 50.034H60.4806C61.1526 50.034 61.6613 49.9967 62.0066 49.922C62.352 49.8473 62.5853 49.7003 62.7066 49.481C62.828 49.257 62.8886 48.9257 62.8886 48.487V47.059C62.8886 46.611 62.8256 46.2773 62.6996 46.058C62.5736 45.834 62.338 45.687 61.9926 45.617C61.6473 45.547 61.1433 45.512 60.4806 45.512H60.0746C59.4026 45.512 58.8916 45.547 58.5416 45.617C58.1963 45.687 57.963 45.834 57.8416 46.058C57.7203 46.2773 57.6596 46.611 57.6596 47.059V48.487C57.6596 48.9257 57.7203 49.257 57.8416 49.481C57.963 49.7003 58.1963 49.8473 58.5416 49.922C58.8916 49.9967 59.4026 50.034 60.0746 50.034ZM66.4137 52.351C66.0683 52.351 65.8957 52.1363 65.8957 51.707V51.035C65.8957 50.3583 66.2083 50.0247 66.8337 50.034H67.2187L66.6587 50.279C67.676 48.697 68.18 46.765 68.1707 44.483H72.3357V50.034H72.7907C73.3647 50.034 73.6517 50.3677 73.6517 51.035V51.707C73.6517 52.1363 73.4813 52.351 73.1407 52.351C72.7953 52.351 72.6227 52.1363 72.6227 51.707V51.063H66.9247V51.707C66.9247 52.1363 66.7543 52.351 66.4137 52.351ZM67.9817 50.034H71.2787V45.512H69.2697C69.2277 47.1453 68.7983 48.6527 67.9817 50.034ZM81.6725 51.161C81.5511 51.161 81.4578 51.1237 81.3925 51.049C81.3271 50.9743 81.2805 50.8273 81.2525 50.608C81.2291 50.3887 81.2175 50.0643 81.2175 49.635L81.3575 49.964C81.0728 50.3653 80.7158 50.65 80.2865 50.818C79.8571 50.9813 79.3485 51.063 78.7605 51.063H77.4585C76.9731 51.063 76.5765 50.8997 76.2685 50.573C75.9651 50.2417 75.8135 49.74 75.8135 49.068C75.8135 48.6107 75.8881 48.235 76.0375 47.941C76.1868 47.6423 76.4085 47.4067 76.7025 47.234C77.0011 47.0613 77.3628 46.94 77.7875 46.87C78.2168 46.7953 78.7068 46.758 79.2575 46.758H81.6305L81.1685 47.185V46.114C81.1685 45.8807 81.1265 45.722 81.0425 45.638C80.9631 45.554 80.7975 45.512 80.5455 45.512H78.5715C78.1235 45.512 77.7758 45.5307 77.5285 45.568C77.2811 45.6007 77.1061 45.6613 77.0035 45.75C76.9008 45.834 76.8471 45.9483 76.8425 46.093C76.8285 46.3077 76.7888 46.4663 76.7235 46.569C76.6628 46.6717 76.5298 46.723 76.3245 46.723C75.9838 46.723 75.8135 46.4967 75.8135 46.044C75.8135 45.5073 76.0351 45.113 76.4785 44.861C76.9265 44.609 77.5915 44.483 78.4735 44.483H80.6435C81.2221 44.483 81.6258 44.6207 81.8545 44.896C82.0831 45.1713 82.1975 45.6543 82.1975 46.345V50.552C82.1975 50.958 82.0225 51.161 81.6725 51.161ZM77.4935 50.076H78.7605C79.6331 50.076 80.2538 49.8753 80.6225 49.474C80.9911 49.0727 81.1731 48.4567 81.1685 47.626L81.2945 47.745H79.2575C78.6741 47.745 78.2051 47.7777 77.8505 47.843C77.4958 47.9037 77.2391 48.025 77.0805 48.207C76.9218 48.389 76.8425 48.6597 76.8425 49.019C76.8425 49.3643 76.9031 49.628 77.0245 49.81C77.1458 49.9873 77.3021 50.076 77.4935 50.076ZM44.8155 71C43.6622 71 42.7755 70.7567 42.1555 70.27C41.5355 69.7767 41.1689 69.0167 41.0555 67.99C41.0355 67.75 41.0889 67.5633 41.2155 67.43C41.3422 67.29 41.5289 67.22 41.7755 67.22C42.2289 67.22 42.4789 67.46 42.5255 67.94C42.6122 68.5333 42.8255 68.9467 43.1655 69.18C43.5122 69.4133 44.0622 69.53 44.8155 69.53H46.8955C47.7889 69.53 48.3989 69.3633 48.7255 69.03C49.0589 68.69 49.2255 68.08 49.2255 67.2V65.82C49.2255 64.9333 49.0589 64.3267 48.7255 64C48.3922 63.6667 47.7822 63.5 46.8955 63.5H45.4155C44.3422 63.5 43.5789 63.65 43.1255 63.95C42.9589 64.0633 42.8022 64.1467 42.6555 64.2C42.5089 64.2533 42.3389 64.25 42.1455 64.19L41.9755 64.14C41.5689 64.0267 41.3655 63.7533 41.3655 63.32V58.4C41.3655 57.9067 41.6089 57.66 42.0955 57.66H49.9255C50.4122 57.66 50.6555 57.9067 50.6555 58.4C50.6555 58.8867 50.4122 59.13 49.9255 59.13H42.8355V62.45C43.5089 62.17 44.3689 62.03 45.4155 62.03H46.8955C48.1889 62.03 49.1455 62.34 49.7655 62.96C50.3855 63.5733 50.6955 64.5267 50.6955 65.82V67.2C50.6955 68.4933 50.3855 69.45 49.7655 70.07C49.1455 70.69 48.1889 71 46.8955 71H44.8155ZM57.7866 64.72C56.8533 64.72 56.1566 64.49 55.6966 64.03C55.2433 63.57 55.0166 62.87 55.0166 61.93V60.43C55.0166 59.4967 55.2433 58.8033 55.6966 58.35C56.1566 57.89 56.8533 57.66 57.7866 57.66H58.1066C59.04 57.66 59.7333 57.89 60.1866 58.35C60.6466 58.81 60.8766 59.5033 60.8766 60.43V61.91C60.8766 62.8567 60.6466 63.5633 60.1866 64.03C59.7333 64.49 59.04 64.72 58.1066 64.72H57.7866ZM56.3966 61.93C56.3966 62.4833 56.49 62.8533 56.6766 63.04C56.87 63.2267 57.24 63.32 57.7866 63.32H58.1066C58.6533 63.32 59.02 63.2267 59.2066 63.04C59.4 62.8533 59.4966 62.4767 59.4966 61.91V60.43C59.4966 59.89 59.4 59.5267 59.2066 59.34C59.02 59.1533 58.6533 59.06 58.1066 59.06H57.7866C57.24 59.06 56.87 59.1533 56.6766 59.34C56.49 59.52 56.3966 59.8833 56.3966 60.43V61.93ZM66.2566 71C65.3233 71 64.6266 70.7733 64.1666 70.32C63.7133 69.86 63.4866 69.1633 63.4866 68.23V66.73C63.4866 65.7833 63.7133 65.0867 64.1666 64.64C64.6266 64.1867 65.3233 63.96 66.2566 63.96H66.5766C67.51 63.96 68.2033 64.19 68.6566 64.65C69.1166 65.1033 69.3466 65.7967 69.3466 66.73V68.21C69.3466 69.15 69.1166 69.85 68.6566 70.31C68.2033 70.77 67.51 71 66.5766 71H66.2566ZM64.8666 68.23C64.8666 68.7767 64.96 69.1467 65.1466 69.34C65.34 69.5267 65.71 69.62 66.2566 69.62H66.5766C67.1233 69.62 67.49 69.5233 67.6766 69.33C67.87 69.1367 67.9666 68.7633 67.9666 68.21V66.73C67.9666 66.1833 67.87 65.8167 67.6766 65.63C67.49 65.4367 67.1233 65.34 66.5766 65.34H66.2566C65.71 65.34 65.34 65.4333 65.1466 65.62C64.96 65.8 64.8666 66.17 64.8666 66.73V68.23ZM57.5266 71.29C57.3266 71.29 57.1533 71.2167 57.0066 71.07C56.8666 70.93 56.7966 70.76 56.7966 70.56C56.7966 70.4733 56.81 70.39 56.8366 70.31C56.8633 70.23 56.8966 70.16 56.9366 70.1L66.1566 57.9C66.31 57.7 66.5066 57.6 66.7466 57.6C66.9533 57.6 67.1266 57.6733 67.2666 57.82C67.4133 57.96 67.4866 58.1333 67.4866 58.34C67.4866 58.4133 67.4733 58.4933 67.4466 58.58C67.42 58.66 67.3866 58.73 67.3466 58.79L58.1266 70.99C57.9666 71.19 57.7666 71.29 57.5266 71.29Z" fill="#231F20"/>
</svg>
