<svg width="84" height="84" viewBox="0 0 84 84" fill="none" xmlns="http://www.w3.org/2000/svg">
<circle cx="42" cy="42" r="41" fill="#4667FF" stroke="#EE5930" stroke-width="2"/>
<path d="M14.8711 38.063V31.483H19.4281C20.1655 31.483 20.7511 31.6463 21.1851 31.973C21.6238 32.295 21.8431 32.7547 21.8431 33.352C21.8431 33.688 21.7825 33.9657 21.6611 34.185C21.5398 34.3997 21.3648 34.5723 21.1361 34.703C21.6075 35.053 21.8431 35.5383 21.8431 36.159C21.8431 36.5697 21.7428 36.9173 21.5421 37.202C21.3461 37.482 21.0661 37.6967 20.7021 37.846C20.3428 37.9907 19.9181 38.063 19.4281 38.063H14.8711ZM15.9001 37.034H19.3301C20.3195 37.034 20.8141 36.7843 20.8141 36.285C20.8141 35.893 20.7021 35.6107 20.4781 35.438C20.2588 35.2653 19.8948 35.179 19.3861 35.179H15.9001V37.034ZM15.9001 34.15H19.3861C19.9461 34.15 20.3265 34.0917 20.5271 33.975C20.7278 33.8583 20.8281 33.618 20.8281 33.254C20.8281 32.7593 20.3288 32.512 19.3301 32.512H15.9001V34.15ZM24.7121 38.063V32.008C24.7121 31.5927 24.8825 31.385 25.2231 31.385C25.5685 31.385 25.7411 31.5927 25.7411 32.008V34.15H28.7371C29.2365 34.15 29.6658 34.2247 30.0251 34.374C30.3845 34.5187 30.6621 34.7357 30.8581 35.025C31.0541 35.3143 31.1521 35.6737 31.1521 36.103C31.1521 36.5323 31.0541 36.8917 30.8581 37.181C30.6668 37.4703 30.3891 37.6873 30.0251 37.832C29.6658 37.9767 29.2365 38.0537 28.7371 38.063H24.7121ZM25.7411 37.034H28.6181C29.0428 37.034 29.3998 36.9733 29.6891 36.852C29.9785 36.726 30.1231 36.4927 30.1231 36.152C30.1231 35.872 30.0601 35.662 29.9341 35.522C29.8128 35.382 29.6378 35.291 29.4091 35.249C29.1851 35.2023 28.9215 35.179 28.6181 35.179H25.7411V37.034ZM32.1671 38.315C31.8311 38.315 31.6631 38.1167 31.6631 37.72V31.84C31.6631 31.6487 31.7075 31.4993 31.7961 31.392C31.8895 31.28 32.0155 31.224 32.1741 31.224C32.3375 31.224 32.4635 31.28 32.5521 31.392C32.6455 31.4993 32.6921 31.6487 32.6921 31.84V37.72C32.6921 38.1167 32.5171 38.315 32.1671 38.315ZM40.9583 32.512H37.3253C37.0779 32.512 36.9123 32.5563 36.8283 32.645C36.7443 32.7337 36.7023 32.9087 36.7023 33.17V37.552C36.7023 37.958 36.5319 38.161 36.1913 38.161C35.8459 38.161 35.6733 37.958 35.6733 37.552V33.345C35.6733 32.6543 35.7876 32.1713 36.0163 31.896C36.2449 31.6207 36.6486 31.483 37.2273 31.483H40.9583C41.3829 31.483 41.5953 31.6533 41.5953 31.994C41.5953 32.3393 41.3829 32.512 40.9583 32.512ZM47.0746 38.063C46.2393 38.063 45.5696 37.986 45.0656 37.832C44.5616 37.678 44.1953 37.4167 43.9666 37.048C43.7426 36.6747 43.6306 36.1637 43.6306 35.515V34.024C43.6306 33.38 43.7426 32.8737 43.9666 32.505C44.1953 32.1317 44.5616 31.868 45.0656 31.714C45.5696 31.56 46.2393 31.483 47.0746 31.483H47.4806C48.316 31.483 48.9856 31.5623 49.4896 31.721C49.9936 31.875 50.3576 32.1387 50.5816 32.512C50.8056 32.8807 50.9176 33.3847 50.9176 34.024V35.515C50.9176 36.159 50.8056 36.6677 50.5816 37.041C50.3576 37.4097 49.9936 37.6733 49.4896 37.832C48.9856 37.986 48.316 38.063 47.4806 38.063H47.0746ZM47.0746 37.034H47.4806C48.1526 37.034 48.6613 36.9967 49.0066 36.922C49.352 36.8473 49.5853 36.7003 49.7066 36.481C49.828 36.257 49.8886 35.9257 49.8886 35.487V34.059C49.8886 33.611 49.8256 33.2773 49.6996 33.058C49.5736 32.834 49.338 32.687 48.9926 32.617C48.6473 32.547 48.1433 32.512 47.4806 32.512H47.0746C46.4026 32.512 45.8916 32.547 45.5416 32.617C45.1963 32.687 44.963 32.834 44.8416 33.058C44.7203 33.2773 44.6596 33.611 44.6596 34.059V35.487C44.6596 35.9257 44.7203 36.257 44.8416 36.481C44.963 36.7003 45.1963 36.8473 45.5416 36.922C45.8916 36.9967 46.4026 37.034 47.0746 37.034ZM53.4137 39.351C53.0683 39.351 52.8957 39.1363 52.8957 38.707V38.035C52.8957 37.3583 53.2083 37.0247 53.8337 37.034H54.2187L53.6587 37.279C54.676 35.697 55.18 33.765 55.1707 31.483H59.3357V37.034H59.7907C60.3647 37.034 60.6517 37.3677 60.6517 38.035V38.707C60.6517 39.1363 60.4813 39.351 60.1407 39.351C59.7953 39.351 59.6227 39.1363 59.6227 38.707V38.063H53.9247V38.707C53.9247 39.1363 53.7543 39.351 53.4137 39.351ZM54.9817 37.034H58.2787V32.512H56.2697C56.2277 34.1453 55.7983 35.6527 54.9817 37.034ZM68.6725 38.161C68.5511 38.161 68.4578 38.1237 68.3925 38.049C68.3271 37.9743 68.2805 37.8273 68.2525 37.608C68.2291 37.3887 68.2175 37.0643 68.2175 36.635L68.3575 36.964C68.0728 37.3653 67.7158 37.65 67.2865 37.818C66.8571 37.9813 66.3485 38.063 65.7605 38.063H64.4585C63.9731 38.063 63.5765 37.8997 63.2685 37.573C62.9651 37.2417 62.8135 36.74 62.8135 36.068C62.8135 35.6107 62.8881 35.235 63.0375 34.941C63.1868 34.6423 63.4085 34.4067 63.7025 34.234C64.0011 34.0613 64.3628 33.94 64.7875 33.87C65.2168 33.7953 65.7068 33.758 66.2575 33.758H68.6305L68.1685 34.185V33.114C68.1685 32.8807 68.1265 32.722 68.0425 32.638C67.9631 32.554 67.7975 32.512 67.5455 32.512H65.5715C65.1235 32.512 64.7758 32.5307 64.5285 32.568C64.2811 32.6007 64.1061 32.6613 64.0035 32.75C63.9008 32.834 63.8471 32.9483 63.8425 33.093C63.8285 33.3077 63.7888 33.4663 63.7235 33.569C63.6628 33.6717 63.5298 33.723 63.3245 33.723C62.9838 33.723 62.8135 33.4967 62.8135 33.044C62.8135 32.5073 63.0351 32.113 63.4785 31.861C63.9265 31.609 64.5915 31.483 65.4735 31.483H67.6435C68.2221 31.483 68.6258 31.6207 68.8545 31.896C69.0831 32.1713 69.1975 32.6543 69.1975 33.345V37.552C69.1975 37.958 69.0225 38.161 68.6725 38.161ZM64.4935 37.076H65.7605C66.6331 37.076 67.2538 36.8753 67.6225 36.474C67.9911 36.0727 68.1731 35.4567 68.1685 34.626L68.2945 34.745H66.2575C65.6741 34.745 65.2051 34.7777 64.8505 34.843C64.4958 34.9037 64.2391 35.025 64.0805 35.207C63.9218 35.389 63.8425 35.6597 63.8425 36.019C63.8425 36.3643 63.9031 36.628 64.0245 36.81C64.1458 36.9873 64.3021 37.076 64.4935 37.076ZM26.57 58C26.0767 58 25.83 57.7533 25.83 57.26V46.68L26.3 46.44L24.11 48.52C23.9567 48.6667 23.7967 48.7533 23.63 48.78C23.47 48.8 23.31 48.73 23.15 48.57C22.83 48.25 22.8433 47.9133 23.19 47.56L25.77 45.03C26.01 44.7833 26.3133 44.66 26.68 44.66C27.0933 44.66 27.3 44.9067 27.3 45.4V57.26C27.3 57.7533 27.0567 58 26.57 58ZM36.8086 58C35.3086 58 34.2019 57.6467 33.4886 56.94C32.7819 56.2267 32.4286 55.12 32.4286 53.62V49.02C32.4286 47.5133 32.7819 46.41 33.4886 45.71C34.2019 45.0033 35.3086 44.6567 36.8086 44.67H38.0086C39.5086 44.67 40.6119 45.0233 41.3186 45.73C42.0253 46.43 42.3786 47.5333 42.3786 49.04V53.62C42.3786 55.12 42.0253 56.2267 41.3186 56.94C40.6119 57.6467 39.5086 58 38.0086 58H36.8086ZM36.8086 56.53H38.0086C38.7353 56.53 39.3086 56.44 39.7286 56.26C40.1553 56.0733 40.4586 55.77 40.6386 55.35C40.8186 54.9233 40.9086 54.3467 40.9086 53.62V49.04C40.9086 48.3133 40.8186 47.74 40.6386 47.32C40.4586 46.8933 40.1553 46.59 39.7286 46.41C39.3086 46.23 38.7353 46.14 38.0086 46.14H36.8086C36.0819 46.1267 35.5053 46.21 35.0786 46.39C34.6586 46.5633 34.3553 46.8633 34.1686 47.29C33.9886 47.71 33.8986 48.2867 33.8986 49.02V53.62C33.8986 54.3467 33.9886 54.9233 34.1686 55.35C34.3486 55.77 34.6486 56.0733 35.0686 56.26C35.4953 56.44 36.0753 56.53 36.8086 56.53ZM37.1886 52.25C36.7019 52.25 36.4586 52.0067 36.4586 51.52V51.06C36.4586 50.5867 36.7019 50.35 37.1886 50.35H37.6286C38.0953 50.35 38.3286 50.5867 38.3286 51.06V51.52C38.3286 52.0067 38.0953 52.25 37.6286 52.25H37.1886ZM49.4722 51.72C48.5389 51.72 47.8422 51.49 47.3822 51.03C46.9289 50.57 46.7022 49.87 46.7022 48.93V47.43C46.7022 46.4967 46.9289 45.8033 47.3822 45.35C47.8422 44.89 48.5389 44.66 49.4722 44.66H49.7922C50.7255 44.66 51.4189 44.89 51.8722 45.35C52.3322 45.81 52.5622 46.5033 52.5622 47.43V48.91C52.5622 49.8567 52.3322 50.5633 51.8722 51.03C51.4189 51.49 50.7255 51.72 49.7922 51.72H49.4722ZM48.0822 48.93C48.0822 49.4833 48.1755 49.8533 48.3622 50.04C48.5555 50.2267 48.9255 50.32 49.4722 50.32H49.7922C50.3389 50.32 50.7055 50.2267 50.8922 50.04C51.0855 49.8533 51.1822 49.4767 51.1822 48.91V47.43C51.1822 46.89 51.0855 46.5267 50.8922 46.34C50.7055 46.1533 50.3389 46.06 49.7922 46.06H49.4722C48.9255 46.06 48.5555 46.1533 48.3622 46.34C48.1755 46.52 48.0822 46.8833 48.0822 47.43V48.93ZM57.9422 58C57.0089 58 56.3122 57.7733 55.8522 57.32C55.3989 56.86 55.1722 56.1633 55.1722 55.23V53.73C55.1722 52.7833 55.3989 52.0867 55.8522 51.64C56.3122 51.1867 57.0089 50.96 57.9422 50.96H58.2622C59.1955 50.96 59.8889 51.19 60.3422 51.65C60.8022 52.1033 61.0322 52.7967 61.0322 53.73V55.21C61.0322 56.15 60.8022 56.85 60.3422 57.31C59.8889 57.77 59.1955 58 58.2622 58H57.9422ZM56.5522 55.23C56.5522 55.7767 56.6455 56.1467 56.8322 56.34C57.0255 56.5267 57.3955 56.62 57.9422 56.62H58.2622C58.8089 56.62 59.1755 56.5233 59.3622 56.33C59.5555 56.1367 59.6522 55.7633 59.6522 55.21V53.73C59.6522 53.1833 59.5555 52.8167 59.3622 52.63C59.1755 52.4367 58.8089 52.34 58.2622 52.34H57.9422C57.3955 52.34 57.0255 52.4333 56.8322 52.62C56.6455 52.8 56.5522 53.17 56.5522 53.73V55.23ZM49.2122 58.29C49.0122 58.29 48.8389 58.2167 48.6922 58.07C48.5522 57.93 48.4822 57.76 48.4822 57.56C48.4822 57.4733 48.4955 57.39 48.5222 57.31C48.5489 57.23 48.5822 57.16 48.6222 57.1L57.8422 44.9C57.9955 44.7 58.1922 44.6 58.4322 44.6C58.6389 44.6 58.8122 44.6733 58.9522 44.82C59.0989 44.96 59.1722 45.1333 59.1722 45.34C59.1722 45.4133 59.1589 45.4933 59.1322 45.58C59.1055 45.66 59.0722 45.73 59.0322 45.79L49.8122 57.99C49.6522 58.19 49.4522 58.29 49.2122 58.29Z" fill="white"/>
</svg>
