<svg width="110" height="110" viewBox="0 0 110 110" fill="none" xmlns="http://www.w3.org/2000/svg">
<circle cx="55" cy="55" r="55" fill="#EE5930"/>
<circle cx="55" cy="55" r="40" fill="white"/>
<path d="M27.8711 51.063V44.483H32.4281C33.1655 44.483 33.7511 44.6463 34.1851 44.973C34.6238 45.295 34.8431 45.7547 34.8431 46.352C34.8431 46.688 34.7825 46.9657 34.6611 47.185C34.5398 47.3997 34.3648 47.5723 34.1361 47.703C34.6075 48.053 34.8431 48.5383 34.8431 49.159C34.8431 49.5697 34.7428 49.9173 34.5421 50.202C34.3461 50.482 34.0661 50.6967 33.7021 50.846C33.3428 50.9907 32.9181 51.063 32.4281 51.063H27.8711ZM28.9001 50.034H32.3301C33.3195 50.034 33.8141 49.7843 33.8141 49.285C33.8141 48.893 33.7021 48.6107 33.4781 48.438C33.2588 48.2653 32.8948 48.179 32.3861 48.179H28.9001V50.034ZM28.9001 47.15H32.3861C32.9461 47.15 33.3265 47.0917 33.5271 46.975C33.7278 46.8583 33.8281 46.618 33.8281 46.254C33.8281 45.7593 33.3288 45.512 32.3301 45.512H28.9001V47.15ZM37.7121 51.063V45.008C37.7121 44.5927 37.8825 44.385 38.2231 44.385C38.5685 44.385 38.7411 44.5927 38.7411 45.008V47.15H41.7371C42.2365 47.15 42.6658 47.2247 43.0251 47.374C43.3845 47.5187 43.6621 47.7357 43.8581 48.025C44.0541 48.3143 44.1521 48.6737 44.1521 49.103C44.1521 49.5323 44.0541 49.8917 43.8581 50.181C43.6668 50.4703 43.3891 50.6873 43.0251 50.832C42.6658 50.9767 42.2365 51.0537 41.7371 51.063H37.7121ZM38.7411 50.034H41.6181C42.0428 50.034 42.3998 49.9733 42.6891 49.852C42.9785 49.726 43.1231 49.4927 43.1231 49.152C43.1231 48.872 43.0601 48.662 42.9341 48.522C42.8128 48.382 42.6378 48.291 42.4091 48.249C42.1851 48.2023 41.9215 48.179 41.6181 48.179H38.7411V50.034ZM45.1671 51.315C44.8311 51.315 44.6631 51.1167 44.6631 50.72V44.84C44.6631 44.6487 44.7075 44.4993 44.7961 44.392C44.8895 44.28 45.0155 44.224 45.1741 44.224C45.3375 44.224 45.4635 44.28 45.5521 44.392C45.6455 44.4993 45.6921 44.6487 45.6921 44.84V50.72C45.6921 51.1167 45.5171 51.315 45.1671 51.315ZM53.9583 45.512H50.3253C50.0779 45.512 49.9123 45.5563 49.8283 45.645C49.7443 45.7337 49.7023 45.9087 49.7023 46.17V50.552C49.7023 50.958 49.5319 51.161 49.1913 51.161C48.8459 51.161 48.6733 50.958 48.6733 50.552V46.345C48.6733 45.6543 48.7876 45.1713 49.0163 44.896C49.2449 44.6207 49.6486 44.483 50.2273 44.483H53.9583C54.3829 44.483 54.5953 44.6533 54.5953 44.994C54.5953 45.3393 54.3829 45.512 53.9583 45.512ZM60.0746 51.063C59.2393 51.063 58.5696 50.986 58.0656 50.832C57.5616 50.678 57.1953 50.4167 56.9666 50.048C56.7426 49.6747 56.6306 49.1637 56.6306 48.515V47.024C56.6306 46.38 56.7426 45.8737 56.9666 45.505C57.1953 45.1317 57.5616 44.868 58.0656 44.714C58.5696 44.56 59.2393 44.483 60.0746 44.483H60.4806C61.316 44.483 61.9856 44.5623 62.4896 44.721C62.9936 44.875 63.3576 45.1387 63.5816 45.512C63.8056 45.8807 63.9176 46.3847 63.9176 47.024V48.515C63.9176 49.159 63.8056 49.6677 63.5816 50.041C63.3576 50.4097 62.9936 50.6733 62.4896 50.832C61.9856 50.986 61.316 51.063 60.4806 51.063H60.0746ZM60.0746 50.034H60.4806C61.1526 50.034 61.6613 49.9967 62.0066 49.922C62.352 49.8473 62.5853 49.7003 62.7066 49.481C62.828 49.257 62.8886 48.9257 62.8886 48.487V47.059C62.8886 46.611 62.8256 46.2773 62.6996 46.058C62.5736 45.834 62.338 45.687 61.9926 45.617C61.6473 45.547 61.1433 45.512 60.4806 45.512H60.0746C59.4026 45.512 58.8916 45.547 58.5416 45.617C58.1963 45.687 57.963 45.834 57.8416 46.058C57.7203 46.2773 57.6596 46.611 57.6596 47.059V48.487C57.6596 48.9257 57.7203 49.257 57.8416 49.481C57.963 49.7003 58.1963 49.8473 58.5416 49.922C58.8916 49.9967 59.4026 50.034 60.0746 50.034ZM66.4137 52.351C66.0683 52.351 65.8957 52.1363 65.8957 51.707V51.035C65.8957 50.3583 66.2083 50.0247 66.8337 50.034H67.2187L66.6587 50.279C67.676 48.697 68.18 46.765 68.1707 44.483H72.3357V50.034H72.7907C73.3647 50.034 73.6517 50.3677 73.6517 51.035V51.707C73.6517 52.1363 73.4813 52.351 73.1407 52.351C72.7953 52.351 72.6227 52.1363 72.6227 51.707V51.063H66.9247V51.707C66.9247 52.1363 66.7543 52.351 66.4137 52.351ZM67.9817 50.034H71.2787V45.512H69.2697C69.2277 47.1453 68.7983 48.6527 67.9817 50.034ZM81.6725 51.161C81.5511 51.161 81.4578 51.1237 81.3925 51.049C81.3271 50.9743 81.2805 50.8273 81.2525 50.608C81.2291 50.3887 81.2175 50.0643 81.2175 49.635L81.3575 49.964C81.0728 50.3653 80.7158 50.65 80.2865 50.818C79.8571 50.9813 79.3485 51.063 78.7605 51.063H77.4585C76.9731 51.063 76.5765 50.8997 76.2685 50.573C75.9651 50.2417 75.8135 49.74 75.8135 49.068C75.8135 48.6107 75.8881 48.235 76.0375 47.941C76.1868 47.6423 76.4085 47.4067 76.7025 47.234C77.0011 47.0613 77.3628 46.94 77.7875 46.87C78.2168 46.7953 78.7068 46.758 79.2575 46.758H81.6305L81.1685 47.185V46.114C81.1685 45.8807 81.1265 45.722 81.0425 45.638C80.9631 45.554 80.7975 45.512 80.5455 45.512H78.5715C78.1235 45.512 77.7758 45.5307 77.5285 45.568C77.2811 45.6007 77.1061 45.6613 77.0035 45.75C76.9008 45.834 76.8471 45.9483 76.8425 46.093C76.8285 46.3077 76.7888 46.4663 76.7235 46.569C76.6628 46.6717 76.5298 46.723 76.3245 46.723C75.9838 46.723 75.8135 46.4967 75.8135 46.044C75.8135 45.5073 76.0351 45.113 76.4785 44.861C76.9265 44.609 77.5915 44.483 78.4735 44.483H80.6435C81.2221 44.483 81.6258 44.6207 81.8545 44.896C82.0831 45.1713 82.1975 45.6543 82.1975 46.345V50.552C82.1975 50.958 82.0225 51.161 81.6725 51.161ZM77.4935 50.076H78.7605C79.6331 50.076 80.2538 49.8753 80.6225 49.474C80.9911 49.0727 81.1731 48.4567 81.1685 47.626L81.2945 47.745H79.2575C78.6741 47.745 78.2051 47.7777 77.8505 47.843C77.4958 47.9037 77.2391 48.025 77.0805 48.207C76.9218 48.389 76.8425 48.6597 76.8425 49.019C76.8425 49.3643 76.9031 49.628 77.0245 49.81C77.1458 49.9873 77.3021 50.076 77.4935 50.076ZM39.57 71C39.0767 71 38.83 70.7533 38.83 70.26V59.68L39.3 59.44L37.11 61.52C36.9567 61.6667 36.7967 61.7533 36.63 61.78C36.47 61.8 36.31 61.73 36.15 61.57C35.83 61.25 35.8433 60.9133 36.19 60.56L38.77 58.03C39.01 57.7833 39.3133 57.66 39.68 57.66C40.0933 57.66 40.3 57.9067 40.3 58.4V70.26C40.3 70.7533 40.0567 71 39.57 71ZM49.8086 71C48.3086 71 47.2019 70.6467 46.4886 69.94C45.7819 69.2267 45.4286 68.12 45.4286 66.62V62.02C45.4286 60.5133 45.7819 59.41 46.4886 58.71C47.2019 58.0033 48.3086 57.6567 49.8086 57.67H51.0086C52.5086 57.67 53.6119 58.0233 54.3186 58.73C55.0253 59.43 55.3786 60.5333 55.3786 62.04V66.62C55.3786 68.12 55.0253 69.2267 54.3186 69.94C53.6119 70.6467 52.5086 71 51.0086 71H49.8086ZM49.8086 69.53H51.0086C51.7353 69.53 52.3086 69.44 52.7286 69.26C53.1553 69.0733 53.4586 68.77 53.6386 68.35C53.8186 67.9233 53.9086 67.3467 53.9086 66.62V62.04C53.9086 61.3133 53.8186 60.74 53.6386 60.32C53.4586 59.8933 53.1553 59.59 52.7286 59.41C52.3086 59.23 51.7353 59.14 51.0086 59.14H49.8086C49.0819 59.1267 48.5053 59.21 48.0786 59.39C47.6586 59.5633 47.3553 59.8633 47.1686 60.29C46.9886 60.71 46.8986 61.2867 46.8986 62.02V66.62C46.8986 67.3467 46.9886 67.9233 47.1686 68.35C47.3486 68.77 47.6486 69.0733 48.0686 69.26C48.4953 69.44 49.0753 69.53 49.8086 69.53ZM50.1886 65.25C49.7019 65.25 49.4586 65.0067 49.4586 64.52V64.06C49.4586 63.5867 49.7019 63.35 50.1886 63.35H50.6286C51.0953 63.35 51.3286 63.5867 51.3286 64.06V64.52C51.3286 65.0067 51.0953 65.25 50.6286 65.25H50.1886ZM62.4722 64.72C61.5389 64.72 60.8422 64.49 60.3822 64.03C59.9289 63.57 59.7022 62.87 59.7022 61.93V60.43C59.7022 59.4967 59.9289 58.8033 60.3822 58.35C60.8422 57.89 61.5389 57.66 62.4722 57.66H62.7922C63.7255 57.66 64.4189 57.89 64.8722 58.35C65.3322 58.81 65.5622 59.5033 65.5622 60.43V61.91C65.5622 62.8567 65.3322 63.5633 64.8722 64.03C64.4189 64.49 63.7255 64.72 62.7922 64.72H62.4722ZM61.0822 61.93C61.0822 62.4833 61.1755 62.8533 61.3622 63.04C61.5555 63.2267 61.9255 63.32 62.4722 63.32H62.7922C63.3389 63.32 63.7055 63.2267 63.8922 63.04C64.0855 62.8533 64.1822 62.4767 64.1822 61.91V60.43C64.1822 59.89 64.0855 59.5267 63.8922 59.34C63.7055 59.1533 63.3389 59.06 62.7922 59.06H62.4722C61.9255 59.06 61.5555 59.1533 61.3622 59.34C61.1755 59.52 61.0822 59.8833 61.0822 60.43V61.93ZM70.9422 71C70.0089 71 69.3122 70.7733 68.8522 70.32C68.3989 69.86 68.1722 69.1633 68.1722 68.23V66.73C68.1722 65.7833 68.3989 65.0867 68.8522 64.64C69.3122 64.1867 70.0089 63.96 70.9422 63.96H71.2622C72.1955 63.96 72.8889 64.19 73.3422 64.65C73.8022 65.1033 74.0322 65.7967 74.0322 66.73V68.21C74.0322 69.15 73.8022 69.85 73.3422 70.31C72.8889 70.77 72.1955 71 71.2622 71H70.9422ZM69.5522 68.23C69.5522 68.7767 69.6455 69.1467 69.8322 69.34C70.0255 69.5267 70.3955 69.62 70.9422 69.62H71.2622C71.8089 69.62 72.1755 69.5233 72.3622 69.33C72.5555 69.1367 72.6522 68.7633 72.6522 68.21V66.73C72.6522 66.1833 72.5555 65.8167 72.3622 65.63C72.1755 65.4367 71.8089 65.34 71.2622 65.34H70.9422C70.3955 65.34 70.0255 65.4333 69.8322 65.62C69.6455 65.8 69.5522 66.17 69.5522 66.73V68.23ZM62.2122 71.29C62.0122 71.29 61.8389 71.2167 61.6922 71.07C61.5522 70.93 61.4822 70.76 61.4822 70.56C61.4822 70.4733 61.4955 70.39 61.5222 70.31C61.5489 70.23 61.5822 70.16 61.6222 70.1L70.8422 57.9C70.9955 57.7 71.1922 57.6 71.4322 57.6C71.6389 57.6 71.8122 57.6733 71.9522 57.82C72.0989 57.96 72.1722 58.1333 72.1722 58.34C72.1722 58.4133 72.1589 58.4933 72.1322 58.58C72.1055 58.66 72.0722 58.73 72.0322 58.79L62.8122 70.99C62.6522 71.19 62.4522 71.29 62.2122 71.29Z" fill="#231F20"/>
</svg>
